<mxfile host="app.diagrams.net" agent="Mozilla/5.0 (Windows NT 10.0; Win64; x64) AppleWebKit/537.36 (KHTML, like Gecko) Chrome/139.0.0.0 Safari/537.36" version="28.1.1">
  <diagram name="Page-1" id="W69r7jvGEI3e5ulg9ceL">
    <mxGraphModel dx="1042" dy="538" grid="1" gridSize="10" guides="1" tooltips="1" connect="1" arrows="1" fold="1" page="1" pageScale="1" pageWidth="850" pageHeight="1100" math="0" shadow="0">
      <root>
        <mxCell id="0" />
        <mxCell id="1" parent="0" />
        <mxCell id="4vYXPdL4fnH5ULTg3Wk0-18" value="" style="edgeStyle=orthogonalEdgeStyle;rounded=0;orthogonalLoop=1;jettySize=auto;html=1;" edge="1" parent="1" source="4vYXPdL4fnH5ULTg3Wk0-1" target="4vYXPdL4fnH5ULTg3Wk0-15">
          <mxGeometry relative="1" as="geometry" />
        </mxCell>
        <mxCell id="4vYXPdL4fnH5ULTg3Wk0-1" value="A" style="ellipse;whiteSpace=wrap;html=1;aspect=fixed;" vertex="1" parent="1">
          <mxGeometry x="70" y="100" width="40" height="40" as="geometry" />
        </mxCell>
        <mxCell id="4vYXPdL4fnH5ULTg3Wk0-19" value="" style="edgeStyle=orthogonalEdgeStyle;rounded=0;orthogonalLoop=1;jettySize=auto;html=1;" edge="1" parent="1" source="4vYXPdL4fnH5ULTg3Wk0-15" target="4vYXPdL4fnH5ULTg3Wk0-16">
          <mxGeometry relative="1" as="geometry" />
        </mxCell>
        <mxCell id="4vYXPdL4fnH5ULTg3Wk0-15" value="B" style="ellipse;whiteSpace=wrap;html=1;aspect=fixed;" vertex="1" parent="1">
          <mxGeometry x="190" y="100" width="40" height="40" as="geometry" />
        </mxCell>
        <mxCell id="4vYXPdL4fnH5ULTg3Wk0-20" value="" style="edgeStyle=orthogonalEdgeStyle;rounded=0;orthogonalLoop=1;jettySize=auto;html=1;" edge="1" parent="1" source="4vYXPdL4fnH5ULTg3Wk0-16" target="4vYXPdL4fnH5ULTg3Wk0-17">
          <mxGeometry relative="1" as="geometry" />
        </mxCell>
        <mxCell id="4vYXPdL4fnH5ULTg3Wk0-16" value="C" style="ellipse;whiteSpace=wrap;html=1;aspect=fixed;" vertex="1" parent="1">
          <mxGeometry x="310" y="100" width="40" height="40" as="geometry" />
        </mxCell>
        <mxCell id="4vYXPdL4fnH5ULTg3Wk0-17" value="D" style="ellipse;whiteSpace=wrap;html=1;aspect=fixed;" vertex="1" parent="1">
          <mxGeometry x="440" y="100" width="40" height="40" as="geometry" />
        </mxCell>
        <mxCell id="4vYXPdL4fnH5ULTg3Wk0-22" value="" style="edgeStyle=orthogonalEdgeStyle;rounded=0;orthogonalLoop=1;jettySize=auto;html=1;strokeColor=light-dark(#000000,#53D7FF);" edge="1" parent="1" source="4vYXPdL4fnH5ULTg3Wk0-21" target="4vYXPdL4fnH5ULTg3Wk0-17">
          <mxGeometry relative="1" as="geometry" />
        </mxCell>
        <mxCell id="4vYXPdL4fnH5ULTg3Wk0-21" value="main" style="text;html=1;align=center;verticalAlign=middle;whiteSpace=wrap;rounded=0;" vertex="1" parent="1">
          <mxGeometry x="430" y="40" width="60" height="30" as="geometry" />
        </mxCell>
        <mxCell id="4vYXPdL4fnH5ULTg3Wk0-23" value="" style="edgeStyle=orthogonalEdgeStyle;rounded=0;orthogonalLoop=1;jettySize=auto;html=1;" edge="1" parent="1" source="4vYXPdL4fnH5ULTg3Wk0-24" target="4vYXPdL4fnH5ULTg3Wk0-26">
          <mxGeometry relative="1" as="geometry" />
        </mxCell>
        <mxCell id="4vYXPdL4fnH5ULTg3Wk0-24" value="A" style="ellipse;whiteSpace=wrap;html=1;aspect=fixed;" vertex="1" parent="1">
          <mxGeometry x="70" y="260" width="40" height="40" as="geometry" />
        </mxCell>
        <mxCell id="4vYXPdL4fnH5ULTg3Wk0-25" value="" style="edgeStyle=orthogonalEdgeStyle;rounded=0;orthogonalLoop=1;jettySize=auto;html=1;" edge="1" parent="1" source="4vYXPdL4fnH5ULTg3Wk0-26" target="4vYXPdL4fnH5ULTg3Wk0-28">
          <mxGeometry relative="1" as="geometry" />
        </mxCell>
        <mxCell id="4vYXPdL4fnH5ULTg3Wk0-34" value="" style="edgeStyle=orthogonalEdgeStyle;rounded=0;orthogonalLoop=1;jettySize=auto;html=1;" edge="1" parent="1" source="4vYXPdL4fnH5ULTg3Wk0-26" target="4vYXPdL4fnH5ULTg3Wk0-32">
          <mxGeometry relative="1" as="geometry">
            <Array as="points">
              <mxPoint x="240" y="280" />
              <mxPoint x="240" y="440" />
            </Array>
          </mxGeometry>
        </mxCell>
        <mxCell id="4vYXPdL4fnH5ULTg3Wk0-26" value="B" style="ellipse;whiteSpace=wrap;html=1;aspect=fixed;" vertex="1" parent="1">
          <mxGeometry x="190" y="260" width="40" height="40" as="geometry" />
        </mxCell>
        <mxCell id="4vYXPdL4fnH5ULTg3Wk0-27" value="" style="edgeStyle=orthogonalEdgeStyle;rounded=0;orthogonalLoop=1;jettySize=auto;html=1;" edge="1" parent="1" source="4vYXPdL4fnH5ULTg3Wk0-28" target="4vYXPdL4fnH5ULTg3Wk0-29">
          <mxGeometry relative="1" as="geometry" />
        </mxCell>
        <mxCell id="4vYXPdL4fnH5ULTg3Wk0-28" value="C" style="ellipse;whiteSpace=wrap;html=1;aspect=fixed;" vertex="1" parent="1">
          <mxGeometry x="310" y="260" width="40" height="40" as="geometry" />
        </mxCell>
        <mxCell id="4vYXPdL4fnH5ULTg3Wk0-29" value="D" style="ellipse;whiteSpace=wrap;html=1;aspect=fixed;" vertex="1" parent="1">
          <mxGeometry x="440" y="260" width="40" height="40" as="geometry" />
        </mxCell>
        <mxCell id="4vYXPdL4fnH5ULTg3Wk0-30" value="" style="edgeStyle=orthogonalEdgeStyle;rounded=0;orthogonalLoop=1;jettySize=auto;html=1;strokeColor=light-dark(#000000,#53D7FF);" edge="1" parent="1" source="4vYXPdL4fnH5ULTg3Wk0-31" target="4vYXPdL4fnH5ULTg3Wk0-29">
          <mxGeometry relative="1" as="geometry" />
        </mxCell>
        <mxCell id="4vYXPdL4fnH5ULTg3Wk0-31" value="main" style="text;html=1;align=center;verticalAlign=middle;whiteSpace=wrap;rounded=0;" vertex="1" parent="1">
          <mxGeometry x="430" y="200" width="60" height="30" as="geometry" />
        </mxCell>
        <mxCell id="4vYXPdL4fnH5ULTg3Wk0-35" value="" style="edgeStyle=orthogonalEdgeStyle;rounded=0;orthogonalLoop=1;jettySize=auto;html=1;" edge="1" parent="1" target="4vYXPdL4fnH5ULTg3Wk0-33">
          <mxGeometry relative="1" as="geometry">
            <mxPoint x="290.0000000000001" y="440.0000000000001" as="sourcePoint" />
          </mxGeometry>
        </mxCell>
        <mxCell id="4vYXPdL4fnH5ULTg3Wk0-32" value="E" style="ellipse;whiteSpace=wrap;html=1;aspect=fixed;" vertex="1" parent="1">
          <mxGeometry x="260" y="420" width="40" height="40" as="geometry" />
        </mxCell>
        <mxCell id="4vYXPdL4fnH5ULTg3Wk0-33" value="F" style="ellipse;whiteSpace=wrap;html=1;aspect=fixed;" vertex="1" parent="1">
          <mxGeometry x="360" y="420" width="40" height="40" as="geometry" />
        </mxCell>
        <mxCell id="4vYXPdL4fnH5ULTg3Wk0-37" value="" style="edgeStyle=orthogonalEdgeStyle;rounded=0;orthogonalLoop=1;jettySize=auto;html=1;strokeColor=light-dark(#000000,#53D7FF);" edge="1" parent="1" source="4vYXPdL4fnH5ULTg3Wk0-36" target="4vYXPdL4fnH5ULTg3Wk0-33">
          <mxGeometry relative="1" as="geometry">
            <Array as="points">
              <mxPoint x="380" y="390" />
              <mxPoint x="380" y="390" />
            </Array>
          </mxGeometry>
        </mxCell>
        <mxCell id="4vYXPdL4fnH5ULTg3Wk0-36" value="feature-branch" style="text;html=1;align=center;verticalAlign=middle;whiteSpace=wrap;rounded=0;" vertex="1" parent="1">
          <mxGeometry x="310" y="350" width="140" height="30" as="geometry" />
        </mxCell>
        <mxCell id="4vYXPdL4fnH5ULTg3Wk0-38" value="" style="edgeStyle=orthogonalEdgeStyle;rounded=0;orthogonalLoop=1;jettySize=auto;html=1;" edge="1" parent="1" source="4vYXPdL4fnH5ULTg3Wk0-39" target="4vYXPdL4fnH5ULTg3Wk0-42">
          <mxGeometry relative="1" as="geometry" />
        </mxCell>
        <mxCell id="4vYXPdL4fnH5ULTg3Wk0-39" value="A" style="ellipse;whiteSpace=wrap;html=1;aspect=fixed;" vertex="1" parent="1">
          <mxGeometry x="70" y="590" width="40" height="40" as="geometry" />
        </mxCell>
        <mxCell id="4vYXPdL4fnH5ULTg3Wk0-40" value="" style="edgeStyle=orthogonalEdgeStyle;rounded=0;orthogonalLoop=1;jettySize=auto;html=1;" edge="1" parent="1" source="4vYXPdL4fnH5ULTg3Wk0-42" target="4vYXPdL4fnH5ULTg3Wk0-44">
          <mxGeometry relative="1" as="geometry" />
        </mxCell>
        <mxCell id="4vYXPdL4fnH5ULTg3Wk0-41" value="" style="edgeStyle=orthogonalEdgeStyle;rounded=0;orthogonalLoop=1;jettySize=auto;html=1;" edge="1" parent="1" source="4vYXPdL4fnH5ULTg3Wk0-42" target="4vYXPdL4fnH5ULTg3Wk0-49">
          <mxGeometry relative="1" as="geometry">
            <Array as="points">
              <mxPoint x="240" y="610" />
              <mxPoint x="240" y="770" />
            </Array>
          </mxGeometry>
        </mxCell>
        <mxCell id="4vYXPdL4fnH5ULTg3Wk0-42" value="B" style="ellipse;whiteSpace=wrap;html=1;aspect=fixed;" vertex="1" parent="1">
          <mxGeometry x="190" y="590" width="40" height="40" as="geometry" />
        </mxCell>
        <mxCell id="4vYXPdL4fnH5ULTg3Wk0-43" value="" style="edgeStyle=orthogonalEdgeStyle;rounded=0;orthogonalLoop=1;jettySize=auto;html=1;" edge="1" parent="1" source="4vYXPdL4fnH5ULTg3Wk0-44" target="4vYXPdL4fnH5ULTg3Wk0-45">
          <mxGeometry relative="1" as="geometry" />
        </mxCell>
        <mxCell id="4vYXPdL4fnH5ULTg3Wk0-44" value="C" style="ellipse;whiteSpace=wrap;html=1;aspect=fixed;" vertex="1" parent="1">
          <mxGeometry x="310" y="590" width="40" height="40" as="geometry" />
        </mxCell>
        <mxCell id="4vYXPdL4fnH5ULTg3Wk0-58" value="" style="edgeStyle=orthogonalEdgeStyle;rounded=0;orthogonalLoop=1;jettySize=auto;html=1;" edge="1" parent="1" source="4vYXPdL4fnH5ULTg3Wk0-45" target="4vYXPdL4fnH5ULTg3Wk0-57">
          <mxGeometry relative="1" as="geometry" />
        </mxCell>
        <mxCell id="4vYXPdL4fnH5ULTg3Wk0-45" value="D" style="ellipse;whiteSpace=wrap;html=1;aspect=fixed;" vertex="1" parent="1">
          <mxGeometry x="430" y="590" width="40" height="40" as="geometry" />
        </mxCell>
        <mxCell id="4vYXPdL4fnH5ULTg3Wk0-48" value="" style="edgeStyle=orthogonalEdgeStyle;rounded=0;orthogonalLoop=1;jettySize=auto;html=1;" edge="1" parent="1" source="4vYXPdL4fnH5ULTg3Wk0-49" target="4vYXPdL4fnH5ULTg3Wk0-50">
          <mxGeometry relative="1" as="geometry" />
        </mxCell>
        <mxCell id="4vYXPdL4fnH5ULTg3Wk0-49" value="E" style="ellipse;whiteSpace=wrap;html=1;aspect=fixed;" vertex="1" parent="1">
          <mxGeometry x="260" y="750" width="40" height="40" as="geometry" />
        </mxCell>
        <mxCell id="4vYXPdL4fnH5ULTg3Wk0-61" style="edgeStyle=orthogonalEdgeStyle;rounded=0;orthogonalLoop=1;jettySize=auto;html=1;entryX=0.5;entryY=1;entryDx=0;entryDy=0;" edge="1" parent="1" source="4vYXPdL4fnH5ULTg3Wk0-50" target="4vYXPdL4fnH5ULTg3Wk0-57">
          <mxGeometry relative="1" as="geometry">
            <Array as="points">
              <mxPoint x="530" y="770" />
              <mxPoint x="530" y="610" />
              <mxPoint x="570" y="610" />
            </Array>
          </mxGeometry>
        </mxCell>
        <mxCell id="4vYXPdL4fnH5ULTg3Wk0-50" value="F" style="ellipse;whiteSpace=wrap;html=1;aspect=fixed;" vertex="1" parent="1">
          <mxGeometry x="360" y="750" width="40" height="40" as="geometry" />
        </mxCell>
        <mxCell id="4vYXPdL4fnH5ULTg3Wk0-57" value="G" style="ellipse;whiteSpace=wrap;html=1;aspect=fixed;" vertex="1" parent="1">
          <mxGeometry x="550" y="590" width="40" height="40" as="geometry" />
        </mxCell>
        <mxCell id="4vYXPdL4fnH5ULTg3Wk0-62" value="" style="edgeStyle=orthogonalEdgeStyle;rounded=0;orthogonalLoop=1;jettySize=auto;html=1;strokeColor=light-dark(#000000,#53D7FF);" edge="1" parent="1" source="4vYXPdL4fnH5ULTg3Wk0-63">
          <mxGeometry relative="1" as="geometry">
            <mxPoint x="570" y="590" as="targetPoint" />
          </mxGeometry>
        </mxCell>
        <mxCell id="4vYXPdL4fnH5ULTg3Wk0-63" value="main" style="text;html=1;align=center;verticalAlign=middle;whiteSpace=wrap;rounded=0;" vertex="1" parent="1">
          <mxGeometry x="540" y="530" width="60" height="30" as="geometry" />
        </mxCell>
        <mxCell id="4vYXPdL4fnH5ULTg3Wk0-64" value="feature-branch" style="text;html=1;align=center;verticalAlign=middle;whiteSpace=wrap;rounded=0;" vertex="1" parent="1">
          <mxGeometry x="510" y="510" width="140" height="30" as="geometry" />
        </mxCell>
      </root>
    </mxGraphModel>
  </diagram>
</mxfile>
